<svg t="1704254332949" class="icon" viewBox="0 0 1024 1024" version="1.1" xmlns="http://www.w3.org/2000/svg" p-id="5217" width="128" height="128"><path d="M261.12 477.866667c1.706667-69.973333 8.533333-136.533333 18.773333-196.266667-46.08-20.48-90.453333-47.786667-131.413333-80.213333C85.333333 276.48 42.666667 372.053333 35.84 477.866667h225.28zM512 261.12c52.906667 0 104.106667-8.533333 151.893333-23.893333-22.186667-92.16-54.613333-162.133333-90.453333-199.68-20.48-1.706667-40.96-3.413333-61.44-3.413334-20.48 0-40.96 1.706667-61.44 3.413334-35.84 37.546667-68.266667 107.52-90.453333 199.68 47.786667 15.36 98.986667 23.893333 151.893333 23.893333zM261.12 546.133333H35.84c6.826667 105.813333 49.493333 201.386667 114.346667 276.48 40.96-32.426667 83.626667-59.733333 131.413333-80.213333-11.946667-59.733333-18.773333-126.293333-20.48-196.266667zM762.88 546.133333c-1.706667 69.973333-8.533333 136.533333-18.773333 196.266667 46.08 20.48 90.453333 47.786667 131.413333 80.213333 64.853333-75.093333 105.813333-170.666667 114.346667-276.48H762.88zM512 762.88c-52.906667 0-104.106667 8.533333-151.893333 23.893333 22.186667 92.16 54.613333 162.133333 90.453333 199.68 20.48 3.413333 40.96 3.413333 61.44 3.413334 20.48 0 40.96-1.706667 61.44-3.413334 35.84-37.546667 68.266667-107.52 90.453333-199.68-47.786667-15.36-98.986667-23.893333-151.893333-23.893333zM677.546667 305.493333c-52.906667 15.36-109.226667 23.893333-165.546667 23.893334-56.32 0-112.64-8.533333-165.546667-23.893334-8.533333 52.906667-15.36 110.933333-15.36 172.373334h363.52c-1.706667-61.44-8.533333-119.466667-17.066666-172.373334zM295.253333 810.666667c-34.133333 17.066667-66.56 37.546667-97.28 61.44 44.373333 39.253333 97.28 69.973333 153.6 90.453333-22.186667-42.666667-40.96-93.866667-56.32-151.893333zM728.746667 810.666667c-15.36 58.026667-34.133333 109.226667-56.32 151.893333 58.026667-20.48 109.226667-51.2 153.6-90.453333-30.72-23.893333-63.146667-44.373333-97.28-61.44zM744.106667 281.6c10.24 59.733333 17.066667 126.293333 18.773333 196.266667h225.28c-6.826667-105.813333-49.493333-201.386667-114.346667-276.48-39.253333 32.426667-83.626667 59.733333-129.706666 80.213333zM295.253333 213.333333c15.36-58.026667 34.133333-109.226667 56.32-151.893333-58.026667 20.48-109.226667 51.2-153.6 90.453333 30.72 23.893333 63.146667 44.373333 97.28 61.44zM826.026667 151.893333c-44.373333-39.253333-97.28-69.973333-153.6-90.453333 22.186667 42.666667 42.666667 92.16 56.32 151.893333 34.133333-17.066667 66.56-37.546667 97.28-61.44zM346.453333 718.506667c52.906667-15.36 109.226667-23.893333 165.546667-23.893334 56.32 0 112.64 8.533333 165.546667 23.893334 8.533333-52.906667 15.36-110.933333 15.36-172.373334H329.386667c1.706667 61.44 8.533333 119.466667 17.066666 172.373334z" fill="#ffffff" p-id="5218"></path></svg>